<svg width="6243" height="7892" viewBox="0 0 6243 7892" fill="none" xmlns="http://www.w3.org/2000/svg">
<path fill-rule="evenodd" clip-rule="evenodd" d="M2477.54 6706.81C2582.51 7211.37 2293.33 7715.26 1804.54 7855.16C1291.73 8001.92 753.403 7692.46 602.149 7163.97C565.471 7035.81 554.921 6906.54 567.298 6782.14C572.455 6806.93 578.564 6831.72 585.647 6856.46C736.902 7384.96 1275.23 7694.42 1788.04 7547.65C2176.49 7436.48 2438.87 7095.41 2477.54 6706.81ZM3324.78 2093L4029.11 3430.05H6242.78V7048.05H5634.78V3563.05H4099.18L4803.88 4900.8H4162.22L3473.13 3563.05H2716.78V4901.05H2583.78V3563.05H1750.78V3430.05H2583.78V2092.05H3324.78V2093ZM2969.97 475.223C1698.67 870.17 818.536 1974.54 902.651 3209.79C1003.21 4686.51 2443.75 5791.08 4120.2 5676.92C4598.21 5644.37 5043.79 5516.24 5434.23 5315.47C4919.97 5960.24 4141.18 6396.6 3245.88 6457.57C1569.43 6571.73 119.306 5326.46 6.92881 3676.19C-105.448 2025.92 1162.48 595.565 2838.92 481.406C2882.77 478.421 2926.45 476.366 2969.97 475.223ZM2716.78 3430.05H3404.62L2716.78 2094.72V3430.05ZM5645.58 1319.9C5531.45 1478.77 5534.69 1558.8 5618.2 1689.47C5441.3 1599.58 5325.9 1670.21 5116.07 1811.19C5315.48 1581.7 5339.76 1480.27 5231.77 1349.47C5392.29 1451.14 5483.02 1429.3 5645.58 1319.9ZM4900.92 642.385C4795.89 868.214 4814.93 967.606 4938.65 1111.36C4712.05 1040.75 4588.76 1156.45 4366.98 1382.55C4559.62 1048.16 4569.12 915.481 4416.37 777.351C4625.81 866.581 4729.13 817.773 4900.92 642.385ZM3813.48 0C3793.56 379.538 3871.94 511.388 4113.77 650.208C3773.53 671.45 3670.55 903.374 3494.87 1346.26C3573.93 764.25 3515.92 569.416 3238.33 454.29C3565.57 468.924 3677.53 343.422 3813.48 0Z" fill="#B6E7BB"/>
</svg>
